<svg width="20" height="20" viewBox="0 0 9 9" fill="none" xmlns="http://www.w3.org/2000/svg">
<path d="M4.18268 0.422652C4.24433 0.232927 4.51274 0.232927 4.57439 0.422653L5.44192 3.09265C5.46949 3.1775 5.54856 3.23494 5.63777 3.23494H8.44517C8.64466 3.23494 8.7276 3.49022 8.56621 3.60747L6.29498 5.25762C6.2228 5.31006 6.1926 5.40301 6.22017 5.48786L7.0877 8.15785C7.14935 8.34758 6.9322 8.50535 6.77081 8.38809L4.49958 6.73794C4.4274 6.6855 4.32967 6.6855 4.25749 6.73794L1.98626 8.38809C1.82487 8.50535 1.60772 8.34758 1.66936 8.15785L2.5369 5.48786C2.56447 5.40301 2.53427 5.31006 2.46209 5.25762L0.190857 3.60747C0.0294666 3.49022 0.11241 3.23494 0.311899 3.23494H3.1193C3.20851 3.23494 3.28758 3.1775 3.31515 3.09265L4.18268 0.422652Z" fill="#F1CC4A"/>
</svg>
